<svg width="32" height="32" viewBox="0 0 32 32" fill="none" xmlns="http://www.w3.org/2000/svg">
<path d="M30.0068 7.24786H2V24.7521H30.0068V7.24786Z" fill="#016FD0"/>
<path d="M22.6683 12.5404L22.1264 13.7349H23.2131L22.6683 12.5404ZM16.4151 13.2809C16.5173 13.2322 16.5776 13.1268 16.5776 12.9959C16.5776 12.8674 16.5145 12.7747 16.412 12.7309C16.3192 12.6826 16.176 12.677 16.0388 12.677H15.069V13.3421H16.0258C16.1788 13.3425 16.3069 13.3404 16.4151 13.2809ZM3.99234 12.5404L3.45671 13.7349H4.53147L3.99234 12.5404ZM28.937 20.1933H27.4162V19.5506H28.9303C29.0809 19.5506 29.1859 19.5331 29.2489 19.4763C29.2779 19.4527 29.3013 19.4229 29.3174 19.3891C29.3335 19.3554 29.3419 19.3184 29.342 19.281C29.3432 19.2426 29.3351 19.2046 29.3184 19.17C29.3016 19.1355 29.2767 19.1056 29.2458 19.0828C29.189 19.0373 29.1057 19.0163 28.9685 19.0163C28.2291 18.9932 27.307 19.037 27.307 18.0886C27.307 17.6538 27.6105 17.1959 28.4367 17.1959H30.0051V16.5997H28.5477C28.108 16.5997 27.7887 16.6956 27.5625 16.8447V16.5997H25.4071C25.0626 16.5997 24.6579 16.6774 24.4667 16.8447V16.5997H20.6182V16.8447C20.3119 16.6435 19.7952 16.5997 19.5568 16.5997H17.018V16.8447C16.7757 16.6312 16.2366 16.5997 15.9082 16.5997H13.0673L12.4171 17.24L11.808 16.5997H7.56391V20.7825H11.7282L12.3979 20.1321L13.0291 20.7825L15.5959 20.7846V19.8009H15.848C16.1886 19.8054 16.5902 19.7928 16.9448 19.6538V20.7822H19.0621V19.692H19.164C19.2946 19.692 19.3075 19.6972 19.3075 19.8156V20.7818H25.7389C26.1471 20.7818 26.5743 20.6873 26.8102 20.5143V20.7822H28.8505C29.2752 20.7822 29.6897 20.7279 30.0051 20.5896V19.8103C29.8139 20.0645 29.4415 20.1937 28.937 20.1937V20.1933ZM15.8819 19.2061H14.8996V20.2112H13.369L12.3996 19.219L11.3921 20.2112H8.27353V17.2137H11.4401L12.4087 18.1964L13.41 17.2137H15.9261C16.551 17.2137 17.2529 17.3713 17.2529 18.2013C17.2529 19.0338 16.5702 19.2061 15.8819 19.2061ZM20.606 19.0699C20.717 19.2162 20.7331 19.3528 20.7362 19.6171V20.2112H19.9457V19.8366C19.9457 19.6559 19.965 19.3888 19.8187 19.2495C19.7035 19.1424 19.5281 19.1165 19.241 19.1165H18.3994V20.2112H17.6082V17.2137H19.4259C19.825 17.2137 20.1148 17.2302 20.3735 17.3552C20.6221 17.4917 20.7782 17.679 20.7782 18.021C20.7782 18.4993 20.4274 18.7433 20.2202 18.8182C20.3952 18.8773 20.5388 18.9827 20.606 19.0702V19.0699ZM23.8583 17.8341H22.0144V18.3785H23.8131V18.9901H22.0144V19.5866L23.8579 19.5894V20.2112H21.2302V17.2137H23.8579V17.8337L23.8583 17.8341ZM25.8811 20.2112H24.3477V19.5684H25.8751C26.0246 19.5684 26.1307 19.5506 26.1969 19.4942C26.2257 19.4704 26.2489 19.4406 26.2649 19.4068C26.281 19.3731 26.2894 19.3362 26.2896 19.2988C26.29 19.2606 26.2815 19.2228 26.2649 19.1884C26.2482 19.154 26.2239 19.1238 26.1937 19.1003C26.1335 19.0548 26.0502 19.0338 25.9133 19.0338C25.1771 19.0111 24.2549 19.0548 24.2549 18.1061C24.2549 17.6717 24.5553 17.2141 25.3805 17.2141H26.9593V17.8519H25.5145C25.3714 17.8519 25.2786 17.8568 25.1995 17.9062C25.113 17.9545 25.0811 18.0266 25.0811 18.1215C25.0811 18.2346 25.1543 18.3116 25.2534 18.3449C25.3363 18.3711 25.4256 18.3788 25.5597 18.3788L25.9833 18.3893C26.4108 18.3988 26.7045 18.4663 26.8827 18.6302C27.036 18.7748 27.1183 18.9568 27.1183 19.2652C27.1183 19.9101 26.6754 20.2112 25.8811 20.2112ZM19.7749 17.8821C19.6797 17.8306 19.5393 17.8278 19.3992 17.8278H18.4295V18.501H19.3863C19.5396 18.501 19.6699 18.4961 19.7749 18.4394C19.8768 18.3834 19.938 18.2797 19.938 18.1516C19.938 18.0235 19.8771 17.9307 19.7749 17.8821ZM28.5718 17.8278C28.4283 17.8278 28.3334 17.8327 28.2533 17.8821C28.1699 17.9307 28.1381 18.0025 28.1381 18.0977C28.1381 18.2108 28.2081 18.2878 28.3103 18.3211C28.3933 18.3473 28.4826 18.355 28.6135 18.355L29.0406 18.3655C29.4712 18.375 29.7583 18.4425 29.9337 18.6067C29.9659 18.6295 29.9848 18.655 30.0068 18.6809V17.8274H28.5715L28.5718 17.8278ZM15.9092 17.8278H14.8824V18.591H15.9001C16.2026 18.591 16.3906 18.4544 16.3906 18.1954C16.3906 17.9332 16.1935 17.8278 15.9092 17.8278ZM9.05772 17.8278V18.3729H10.7861V18.9845H9.05772V19.5807H10.9937L11.8927 18.7013L11.0315 17.8278H9.05772ZM14.1123 19.9241V17.5208L12.9034 18.703L14.1123 19.9241ZM9.12354 15.1115V15.6282H15.7016L15.6985 14.5356H15.8259C15.9148 14.5384 15.9408 14.5461 15.9408 14.6798V15.6282H19.3429V15.3737C19.6174 15.5074 20.0441 15.6282 20.606 15.6282H22.0371L22.3435 14.9627H23.0226L23.322 15.6279H26.0799V14.9959L26.4976 15.6282H28.708V11.4489H26.5207V11.9425L26.2144 11.4489H23.97V11.9425L23.6885 11.4489H20.6568C20.1491 11.4489 19.7035 11.5133 19.3429 11.6929V11.4489H17.2508V11.6929C17.0215 11.5077 16.7088 11.4489 16.3616 11.4489H8.71814L8.20527 12.5285L7.67874 11.4489H5.2712V11.9425L5.00653 11.4489H2.95363L2 13.436V15.0254L3.40979 12.0286H4.58013L5.91921 14.8661V12.029H7.20402L8.23432 14.0616L9.18095 12.029H10.492V15.0257H9.68438L9.68158 12.6787L8.53995 15.0254H7.84853L6.70375 12.6763V15.0254H5.10281L4.80033 14.357H3.16088L2.85526 15.0257H2V15.6282H3.34538L3.64855 14.9627H4.32772L4.63019 15.6282H7.27684V15.1195L7.51315 15.6307H8.88723L9.12354 15.1118V15.1115ZM19.4892 12.378C19.7434 12.1389 20.1421 12.0286 20.6848 12.0286H21.4469V12.6707H20.7005C20.4134 12.6707 20.251 12.7095 20.0949 12.8482C19.9608 12.9742 19.8687 13.213 19.8687 13.5273C19.8687 13.848 19.9387 14.0794 20.0851 14.231C20.2062 14.3493 20.4267 14.385 20.6337 14.385H20.9872L22.097 12.029H23.2768L24.6096 14.8633V12.0286H25.8086L27.1925 14.1158V12.029H27.9991V15.0254H26.8834L25.391 12.7761V15.0254H23.7876L23.4809 14.3567H21.8456L21.5481 15.0254H20.627C20.2444 15.0254 19.7598 14.9483 19.4854 14.6938C19.2088 14.4397 19.0646 14.0948 19.0646 13.5501C19.0646 13.1055 19.1503 12.6994 19.4892 12.378ZM17.8697 12.0286H18.6728V15.0254H17.8697V12.0286ZM14.2477 12.0286H16.0584C16.461 12.0286 16.7575 12.0384 17.012 12.1722C17.2609 12.3062 17.4104 12.5012 17.4104 12.8356C17.4104 13.3134 17.06 13.5602 16.8559 13.6345C17.0278 13.694 17.1752 13.7997 17.2452 13.8865C17.3565 14.036 17.3754 14.169 17.3754 14.4365V15.0254H16.5814L16.5786 14.6473C16.5786 14.467 16.5975 14.2079 16.4543 14.0637C16.3392 13.9583 16.1638 13.9352 15.8802 13.9352H15.0351V15.0254H14.2477V12.0286ZM11.0739 12.0286H13.7041V12.6528H11.8612V13.193H13.6596V13.8071H11.8612V14.4057H13.7041V15.0254H11.0739V12.0286Z" fill="white"/>
</svg>
