<svg width="32" height="32" viewBox="0 0 32 32" fill="none" xmlns="http://www.w3.org/2000/svg">
<path d="M23.3291 14.6143L24.1045 17.0459C24.189 17.3314 24.2662 17.619 24.3369 17.9082H24.3604C24.4226 17.6571 24.5076 17.3355 24.585 17.0449L25.2754 14.6143H26.2227L25.1904 17.6104C24.686 19.0295 24.3289 19.8298 23.8174 20.332C23.4292 20.6926 23.0341 20.8415 22.8252 20.8887L22.5918 20.1201C23.5229 19.7823 23.8564 18.9044 23.8564 18.7871C23.8554 18.7217 23.8399 18.6571 23.8105 18.5986L22.3438 14.6143H23.3291Z" fill="black"/>
<path fill-rule="evenodd" clip-rule="evenodd" d="M20.1016 14.5205C21.3585 14.5205 21.708 15.3596 21.708 16.2773V17.9082C21.708 18.2764 21.7154 18.6534 21.7695 18.9355H20.9551L20.8936 18.4336H20.8701C20.6297 18.7709 20.2104 19.0225 19.6748 19.0225C18.8764 19.0223 18.419 18.4263 18.4189 17.7598C18.4189 16.6852 19.3412 16.1515 20.8076 16.1514C20.8076 15.83 20.8075 15.1875 19.9463 15.1875C19.5664 15.1876 19.1782 15.3045 18.9072 15.4854L18.7217 14.8809C19.0239 14.685 19.528 14.5205 20.1016 14.5205ZM20.8311 16.7627C20.1254 16.7627 19.3108 16.8964 19.3105 17.665C19.3105 18.1433 19.6061 18.3555 19.9395 18.3555C20.4277 18.3553 20.8309 17.9791 20.8311 17.4775V16.7627Z" fill="black"/>
<path fill-rule="evenodd" clip-rule="evenodd" d="M15.665 12.8887C16.3943 12.8887 16.9449 13.0459 17.3018 13.3672C17.635 13.6574 17.8369 14.1123 17.8369 14.6611C17.8369 16.1196 16.6892 16.6219 15.6191 16.6221C15.4329 16.6221 15.2618 16.6141 15.1143 16.583V18.9355H14.2227V13.0068C14.5795 12.9438 15.0524 12.8887 15.665 12.8887ZM15.7197 13.6025C15.5167 13.6009 15.3137 13.6193 15.1143 13.6572V15.8535C15.2463 15.8926 15.4094 15.9004 15.6191 15.9004C16.4411 15.9002 16.9375 15.4689 16.9375 14.7002C16.9374 13.9715 16.4409 13.6026 15.7197 13.6025Z" fill="black"/>
<path d="M10.7324 12.9385C10.9991 12.9491 11.7491 13.0376 12.2305 13.6865C12.1918 13.7096 11.3355 14.1691 11.3457 15.126C11.3569 16.2668 12.4288 16.6474 12.4443 16.6543C12.4342 16.6812 12.2711 17.1963 11.877 17.7285C11.5352 18.189 11.1818 18.6474 10.624 18.6562C10.0759 18.6659 9.89941 18.3564 9.27246 18.3564C8.64617 18.3566 8.45012 18.6469 7.93164 18.666C7.39395 18.6847 6.98362 18.1695 6.63965 17.7109C5.93566 16.7727 5.39892 15.0593 6.12109 13.9033C6.30199 13.6168 6.55191 13.3803 6.84766 13.2148C7.14337 13.0495 7.47567 12.9602 7.81445 12.9561C8.34281 12.9473 8.84242 13.2852 9.16504 13.2852C9.48863 13.285 10.0956 12.8789 10.7324 12.9385Z" fill="black"/>
<path d="M10.7412 11.1113C10.7936 11.5535 10.6002 11.9974 10.3145 12.3174C10.0282 12.6364 9.56004 12.8848 9.10059 12.8516C9.03905 12.4177 9.26957 11.9671 9.53418 11.6836C9.83018 11.364 10.3297 11.1269 10.7412 11.1113Z" fill="black"/>
<path fill-rule="evenodd" clip-rule="evenodd" d="M28.2041 8.01074C29.2128 8.11301 30 8.96435 30 10V22C30 23.0357 29.2128 23.887 28.2041 23.9893L28 24H4L3.7959 23.9893C2.78722 23.887 2 23.0357 2 22V10C2 8.96435 2.78722 8.113 3.7959 8.01074L4 8H28L28.2041 8.01074ZM4 9C3.44772 9 3 9.44772 3 10V22C3 22.5523 3.44772 23 4 23H28C28.5523 23 29 22.5523 29 22V10C29 9.44772 28.5523 9 28 9H4Z" fill="black"/>
</svg>
