<svg width="32" height="32" viewBox="0 0 32 32" fill="none" xmlns="http://www.w3.org/2000/svg">
<path d="M21.568 23.0133C22.2547 23.0147 22.8067 23.4413 22.808 24.1313C22.8067 24.8753 22.2727 25.3693 21.5847 25.3713C20.9 25.3693 20.3747 24.904 20.3733 24.208C20.3714 24.0506 20.4009 23.8943 20.4603 23.7485C20.5196 23.6027 20.6075 23.4702 20.7188 23.3588C20.8302 23.2475 20.9627 23.1596 21.1085 23.1003C21.2543 23.0409 21.4106 23.0114 21.568 23.0133ZM12.428 23.0613C12.55 23.0613 12.6747 23.074 12.796 23.074C12.8893 23.074 12.9827 23.0613 13.0893 23.0653L14.496 24.6493V23.4727C14.496 23.218 14.3253 23.1867 14.232 23.1853H14.148V23.0613H14.1613C14.3127 23.0613 14.4607 23.074 14.61 23.074C14.7407 23.074 14.8713 23.0613 15.0033 23.0613H15.0173V23.1853H14.956C14.824 23.1887 14.688 23.2007 14.6847 23.578V25.0333C14.6847 25.1453 14.6873 25.2567 14.704 25.3547L14.7053 25.3707H14.69L14.5587 25.366L12.934 23.5567V24.8387C12.938 25.1173 12.9807 25.196 13.2213 25.1987H13.2893V25.3227H13.2753C13.1373 25.3227 13 25.3093 12.862 25.3093C12.72 25.3093 12.572 25.3227 12.4273 25.3227H12.4133V25.2H12.472C12.6833 25.1993 12.744 25.0627 12.746 24.8067V23.46C12.7461 23.4238 12.739 23.3879 12.7251 23.3544C12.7112 23.321 12.6907 23.2906 12.665 23.2651C12.6393 23.2396 12.6087 23.2195 12.5751 23.2059C12.5415 23.1923 12.5056 23.1856 12.4693 23.186H12.4133V23.062H12.4273L12.428 23.0613ZM3.18799 23.0613C3.30999 23.0613 3.43533 23.0747 3.55533 23.0747C3.65066 23.0747 3.74333 23.0613 3.85133 23.0667L5.25733 24.6493V23.4733C5.25599 23.2193 5.08599 23.188 4.99266 23.1867H4.90799V23.0627H4.92199C5.07333 23.0627 5.22066 23.0747 5.36999 23.0747C5.50066 23.0747 5.63133 23.0627 5.76333 23.0627H5.77799V23.186H5.71599C5.58399 23.19 5.44866 23.2013 5.44466 23.5793V25.0347C5.44466 25.1467 5.44799 25.258 5.46333 25.3553L5.46666 25.3713H5.44999L5.31799 25.3667L3.69399 23.5567V24.8393C3.69799 25.118 3.74066 25.1967 3.98066 25.1993H4.04999V25.3233H4.03533C3.89733 25.3233 3.75933 25.3107 3.62266 25.3107C3.47999 25.3107 3.33266 25.324 3.18733 25.324H3.17399V25.2H3.23266C3.44399 25.1987 3.50466 25.0627 3.50733 24.808V23.46C3.50733 23.4238 3.50013 23.3879 3.48614 23.3545C3.47216 23.321 3.45167 23.2907 3.42586 23.2653C3.40005 23.2399 3.36945 23.2198 3.33582 23.2063C3.3022 23.1928 3.26622 23.1861 3.22999 23.1867H3.17333V23.062H3.18666L3.18799 23.0613ZM22.8733 23.0613C22.996 23.0613 23.12 23.074 23.2413 23.074C23.336 23.074 23.428 23.0607 23.5367 23.066L24.9433 24.6493V23.4727C24.942 23.218 24.7713 23.1873 24.678 23.1853H24.5933V23.0613H24.608C24.7587 23.0613 24.906 23.074 25.0547 23.074C25.186 23.074 25.3167 23.0613 25.4493 23.0613H25.4627V23.1853H25.4013C25.2693 23.1887 25.1333 23.2007 25.1307 23.578V25.0333C25.1307 25.1453 25.1333 25.2573 25.1487 25.3547L25.1513 25.3707H25.136L25.004 25.366L23.38 23.5567V24.8387C23.384 25.1173 23.4267 25.1953 23.6667 25.1987H23.7353V25.3227H23.722C23.5833 25.3227 23.446 25.3093 23.3087 25.3093C23.1653 25.3093 23.018 25.3227 22.8733 25.3227H22.86V25.1987H22.918C23.1293 25.198 23.19 25.062 23.192 24.8067V23.4587C23.192 23.4224 23.1848 23.3866 23.1708 23.3531C23.1568 23.3197 23.1363 23.2894 23.1105 23.264C23.0847 23.2385 23.0541 23.2185 23.0205 23.205C22.9869 23.1915 22.9509 23.1848 22.9147 23.1853H22.86V23.0613H22.8733ZM26.6813 22.9813C26.6884 22.9808 26.6954 22.9823 26.7016 22.9858C26.7077 22.9892 26.7127 22.9944 26.716 23.0007L26.7453 23.0807L27.334 24.754C27.3727 24.8667 27.4107 24.9847 27.452 25.08C27.49 25.1647 27.548 25.1987 27.65 25.1993H27.6833V25.324L27.6687 25.3227C27.5247 25.3173 27.3807 25.31 27.2287 25.31C27.072 25.31 26.912 25.3167 26.7487 25.3233H26.7347V25.2H26.7833C26.8573 25.2 26.968 25.1827 26.968 25.1207C26.9687 25.0847 26.94 24.9973 26.904 24.8947L26.7827 24.5327H26.076L25.9773 24.856C25.9453 24.966 25.9073 25.0493 25.9073 25.1013C25.9073 25.18 26.0273 25.1993 26.134 25.1993H26.1827V25.324H26.168C26.04 25.3173 25.9087 25.3107 25.7813 25.3107C25.6673 25.3107 25.552 25.3173 25.4367 25.324H25.4233V25.1993H25.4547C25.5747 25.1993 25.674 25.1307 25.7213 25.0007L26.2327 23.532C26.274 23.414 26.3313 23.2547 26.3593 23.1273C26.4605 23.0904 26.558 23.0442 26.6507 22.9893C26.6593 22.986 26.668 22.9827 26.6813 22.9827V22.9813ZM16.2353 22.9813C16.2423 22.981 16.2492 22.9825 16.2554 22.9856C16.2616 22.9888 16.2668 22.9935 16.2707 22.9993C16.2799 23.0263 16.2894 23.0532 16.2993 23.08L16.8887 24.7533C16.9267 24.866 16.9647 24.984 17.0067 25.0787C17.044 25.164 17.1027 25.198 17.2053 25.1987H17.2373V25.3233H17.2233C17.0793 25.3167 16.9353 25.31 16.7833 25.31C16.626 25.31 16.4667 25.3167 16.3033 25.3233H16.288V25.1987H16.3373C16.412 25.1987 16.5213 25.182 16.522 25.12C16.5227 25.084 16.494 24.996 16.4587 24.894L16.3373 24.532H15.6307L15.532 24.8553C15.4993 24.964 15.4607 25.0487 15.4613 25.1007C15.4627 25.1793 15.5813 25.1987 15.688 25.1987H15.7373V25.3233L15.7227 25.3227C15.5947 25.316 15.464 25.3093 15.336 25.3093C15.222 25.3093 15.106 25.316 14.9913 25.3227L14.9767 25.3233V25.198H15.01C15.1287 25.198 15.228 25.13 15.2747 25L15.7867 23.5313C15.828 23.4127 15.8867 23.2533 15.9133 23.126C16.0147 23.0913 16.1433 23.0273 16.2047 22.9887C16.2133 22.9853 16.2227 22.9813 16.2353 22.9813ZM10.146 23.0613C10.25 23.0613 10.4473 23.074 10.6427 23.074C10.8333 23.074 10.9867 23.0613 11.1573 23.0613C11.5607 23.0627 11.932 23.1733 11.9333 23.6387C11.9333 23.9273 11.742 24.1073 11.4953 24.208L12.0327 25.0133C12.1227 25.146 12.178 25.1793 12.334 25.1993L12.3453 25.2013V25.3227H12.332C12.2253 25.3227 12.1233 25.31 12.0173 25.31C11.92 25.31 11.8173 25.3233 11.7067 25.3173C11.4625 24.9893 11.2411 24.6449 11.044 24.2867H10.8547V24.9567C10.858 25.1973 10.9547 25.196 11.1027 25.1993H11.1747V25.3227H11.16C10.9773 25.3227 10.7913 25.3093 10.61 25.3093C10.4573 25.3093 10.3067 25.3227 10.146 25.3227H10.1327V25.2H10.204C10.3193 25.1993 10.4167 25.1487 10.4173 25.0413V23.4147C10.4147 23.188 10.304 23.1893 10.204 23.186H10.1333V23.062H10.1467L10.146 23.0613ZM7.98799 22.96L8.00199 22.9633L8.09266 22.9773L8.09066 22.992C8.07733 23.0773 8.06533 23.164 8.05599 23.2493C8.04933 23.3353 8.04933 23.4213 8.04933 23.508V23.5173L8.03999 23.5213L7.92666 23.5627V23.544C7.91733 23.424 7.90533 23.2493 7.70266 23.2493H7.19199V24.938C7.19533 25.1793 7.29133 25.1967 7.44333 25.1993H7.51866V25.3233H7.50466C7.37799 25.3233 7.15466 25.31 6.98266 25.31C6.79066 25.31 6.56733 25.3233 6.44133 25.3233H6.42799V25.1993H6.50266C6.67866 25.1953 6.74933 25.1927 6.75399 24.9447V23.2493H6.24333C6.00666 23.254 6.01133 23.2933 5.95933 23.53L5.95733 23.5407H5.83333L5.83466 23.5247C5.84799 23.4353 5.86399 23.3453 5.87333 23.2527C5.88666 23.1633 5.89333 23.0747 5.89333 22.9833V22.9687H5.99466L5.99666 22.9793C6.01866 23.0593 6.07799 23.06 6.15933 23.062H7.82599C7.91533 23.0607 7.98066 23.0593 7.98599 22.9753L7.98733 22.96H7.98799ZM19.316 23.0613C19.4407 23.0613 19.6333 23.0747 19.7893 23.0747C19.9487 23.0747 20.1407 23.0613 20.2927 23.0613H20.306V23.1853H20.2473C20.13 23.1873 20.0253 23.198 20.024 23.354V25.0307C20.0253 25.1873 20.1307 25.1973 20.2473 25.1993H20.3053V25.3227H20.292C20.1373 25.3227 19.946 25.3093 19.7867 25.3093C19.63 25.3093 19.4407 25.3227 19.316 25.3227H19.3027V25.2H19.3607C19.476 25.198 19.5827 25.188 19.5833 25.0313V23.3547C19.5827 23.1987 19.4767 23.188 19.3607 23.186H19.302V23.062H19.3153L19.316 23.0613ZM19.108 22.96L19.1227 22.9633L19.214 22.9773L19.2113 22.992C19.198 23.0773 19.186 23.164 19.1767 23.2493C19.17 23.3353 19.17 23.4213 19.17 23.508V23.5173L19.1607 23.5213L19.0473 23.5627V23.544C19.0387 23.424 19.026 23.2493 18.824 23.2493H18.3127V24.938C18.316 25.1793 18.412 25.1967 18.5647 25.1993H18.6387V25.3233H18.6253C18.5 25.3233 18.2753 25.31 18.1033 25.31C17.9127 25.31 17.688 25.3233 17.5633 25.3233H17.5487V25.1993H17.624C17.8 25.1953 17.8707 25.1927 17.8753 24.9447V23.2493H17.3647C17.1273 23.2533 17.1327 23.2933 17.0807 23.5293L17.078 23.5407H16.9547L16.9567 23.5247C16.97 23.4353 16.986 23.3447 16.9953 23.2527C17.0087 23.1633 17.014 23.0747 17.014 22.9833V22.9687H17.116L17.1187 22.9793C17.1407 23.0593 17.1987 23.06 17.2813 23.062H18.9487C19.0373 23.0607 19.102 23.0593 19.1073 22.9753V22.96H19.108ZM8.17933 23.0613C8.37466 23.0613 8.70733 23.0747 8.97533 23.0747C9.24466 23.0747 9.57666 23.0613 9.79533 23.0613H9.80866V23.0767C9.80296 23.2393 9.80518 23.4022 9.81533 23.5647V23.5753L9.80466 23.5787L9.69199 23.608V23.592C9.67266 23.384 9.64533 23.2333 9.31533 23.23H8.88399V24.0407H9.25066C9.43533 24.0387 9.46866 23.944 9.49066 23.772V23.7587H9.61399V23.7733C9.60131 24.0192 9.60131 24.2655 9.61399 24.5113V24.5233L9.60266 24.526L9.49133 24.548L9.48999 24.5327C9.46799 24.3373 9.46666 24.2307 9.25466 24.228H8.88399V24.96C8.88399 25.1547 9.05199 25.1533 9.26066 25.1547C9.64599 25.152 9.80066 25.1333 9.89666 24.7747L9.89999 24.7613L9.91333 24.7633L10.016 24.79L10.0133 24.8033C9.97133 24.9727 9.93333 25.142 9.90466 25.3113L9.90199 25.3227H9.89066C9.68533 25.3227 9.31733 25.3093 9.03066 25.3093C8.74199 25.3093 8.36133 25.3227 8.17866 25.3227H8.16533V25.2H8.22399C8.33999 25.198 8.44533 25.188 8.44666 25.0313V23.3547C8.44533 23.1987 8.33999 23.188 8.22399 23.186H8.16533V23.062H8.17866L8.17933 23.0613ZM27.7807 23.0613C27.9513 23.0613 28.118 23.0747 28.2873 23.0747C28.4493 23.0747 28.6093 23.0613 28.774 23.0613H28.7867V23.1853H28.6933C28.5693 23.1887 28.492 23.1833 28.4893 23.3447V24.9953C28.49 25.1153 28.5687 25.1473 28.6687 25.1613C28.8086 25.1706 28.9491 25.1684 29.0887 25.1547C29.2059 25.1405 29.3127 25.0806 29.386 24.988C29.4353 24.9193 29.4633 24.832 29.4827 24.762L29.4853 24.7513H29.6053L29.6033 24.768C29.5667 24.9513 29.5233 25.13 29.484 25.312L29.4813 25.3227H29.4707C29.1887 25.3227 28.9073 25.31 28.626 25.31C28.3447 25.31 28.0633 25.3233 27.7807 25.3233H27.7673V25.1993H27.826C27.9413 25.1967 28.0513 25.1887 28.0527 24.9993V23.3533C28.0513 23.1973 27.942 23.1867 27.826 23.1847H27.7673V23.0613H27.7807ZM2.09066 23.0613C2.21599 23.0613 2.40799 23.0747 2.56399 23.0747C2.72399 23.0747 2.91533 23.0613 3.06666 23.0613H3.08066V23.1853H3.02199C2.90599 23.1873 2.79933 23.198 2.79866 23.354V25.0307C2.79933 25.1873 2.90533 25.1967 3.02199 25.1993H3.08066V25.3227H3.06666C2.91199 25.3227 2.71999 25.31 2.56066 25.31C2.40399 25.31 2.21599 25.3233 2.09066 25.3233H2.07666V25.1993H2.13533C2.25133 25.1967 2.35666 25.1873 2.35799 25.0307V23.354C2.35666 23.1973 2.25133 23.1873 2.13533 23.1853H2.07666V23.0613H2.08999H2.09066ZM21.562 23.1827C21.0127 23.1827 20.8507 23.6693 20.8493 24.096C20.8493 24.666 21.1093 25.2013 21.616 25.2027C22.2253 25.202 22.3307 24.6693 22.332 24.2027C22.332 23.7387 22.082 23.1827 21.562 23.1827ZM26.428 23.4687L26.1467 24.3253H26.7067L26.428 23.4687ZM15.982 23.4687L15.7 24.3253H16.26L15.982 23.468V23.4687ZM11.0227 23.2047C10.936 23.2047 10.896 23.212 10.8547 23.216V24.1427H10.9973C11.314 24.14 11.474 24.03 11.4773 23.6587C11.4753 23.3787 11.3013 23.2053 11.0227 23.2047ZM29.6133 22.9847C29.8427 22.9847 30.0133 23.1607 30.0133 23.386C30.0142 23.4387 30.0045 23.4911 29.9847 23.5399C29.9649 23.5888 29.9354 23.6332 29.8981 23.6704C29.8608 23.7076 29.8163 23.7369 29.7674 23.7565C29.7184 23.7762 29.666 23.7857 29.6133 23.7847C29.5606 23.7857 29.5082 23.7762 29.4593 23.7565C29.4104 23.7369 29.3659 23.7076 29.3285 23.6704C29.2912 23.6332 29.2617 23.5888 29.2419 23.5399C29.2222 23.4911 29.2124 23.4387 29.2133 23.386C29.2122 23.3331 29.2218 23.2805 29.2415 23.2314C29.2612 23.1824 29.2906 23.1377 29.328 23.1003C29.3653 23.0628 29.4098 23.0333 29.4589 23.0134C29.5079 22.9935 29.5604 22.9838 29.6133 22.9847ZM29.6133 23.06C29.4333 23.06 29.296 23.2133 29.296 23.386C29.296 23.558 29.4333 23.7107 29.6133 23.7107C29.6981 23.7091 29.7789 23.6741 29.8381 23.6133C29.8973 23.5525 29.93 23.4708 29.9293 23.386C29.9306 23.3008 29.898 23.2186 29.8388 23.1574C29.7796 23.0962 29.6985 23.0609 29.6133 23.0593V23.06ZM29.6207 23.1707C29.6913 23.1707 29.756 23.2047 29.756 23.2773C29.756 23.3373 29.7167 23.3813 29.6613 23.398L29.728 23.49C29.7521 23.5258 29.7816 23.5577 29.8153 23.5847V23.5973H29.738C29.7 23.5973 29.6673 23.5187 29.594 23.4133H29.5493V23.546C29.5493 23.572 29.5587 23.5707 29.608 23.578V23.5973H29.4147V23.5773C29.4633 23.5707 29.4727 23.5713 29.4727 23.542V23.2453C29.4727 23.2033 29.4687 23.1887 29.416 23.192V23.1707H29.6207ZM11.9113 19.1053C12.3887 19.1053 12.9 19.4053 12.906 20.0287C12.906 20.0647 12.906 20.0993 12.9 20.1353L12.8467 20.1707H11.1953C11.1827 20.224 11.1827 20.3113 11.1953 20.512C11.2293 21.07 11.5887 21.5287 12.0593 21.5287C12.3827 21.5287 12.636 21.352 12.8527 21.1353L12.9353 21.2173C12.6647 21.576 12.3293 21.882 11.848 21.882C10.9127 21.882 10.724 20.9753 10.724 20.6C10.724 19.4467 11.5007 19.1053 11.9113 19.1053ZM26.2447 19.1947C26.282 19.1947 26.29 19.2207 26.2913 19.264V21.47C26.2913 21.5767 26.3553 21.582 26.4553 21.582C26.5267 21.582 26.614 21.576 26.6913 21.576V21.7C26.438 21.7233 25.956 21.8467 25.844 21.882L25.8147 21.864V21.388C25.462 21.676 25.1913 21.882 24.7733 21.882C24.456 21.882 24.1267 21.6753 24.1267 21.1827V19.6767C24.1267 19.5233 24.1033 19.3767 23.7747 19.3473V19.2353C23.986 19.23 24.456 19.1947 24.5327 19.1947C24.598 19.1947 24.598 19.2353 24.598 19.3653V20.882C24.598 21.0587 24.598 21.564 25.1093 21.564C25.3093 21.564 25.574 21.4113 25.8207 21.206V19.6233C25.8207 19.506 25.5387 19.4413 25.3273 19.3833V19.2767C25.856 19.2413 26.1853 19.1947 26.244 19.1947H26.2447ZM16.1527 19.106C16.3407 19.106 16.5933 19.1593 16.8227 19.2767L16.864 19.8767H16.7287C16.67 19.506 16.464 19.294 16.0873 19.294C15.8527 19.294 15.6293 19.4293 15.6293 19.682C15.6293 20.3707 16.9933 20.1587 16.9933 21.082C16.9933 21.47 16.6813 21.882 15.9813 21.882C15.7297 21.8746 15.4837 21.806 15.2647 21.682L15.1993 21.0053L15.3053 20.976C15.382 21.364 15.6167 21.694 16.0467 21.694C16.3933 21.694 16.5227 21.482 16.5227 21.276C16.5227 20.582 15.2413 20.8053 15.2413 19.8587C15.2413 19.5293 15.506 19.1053 16.1527 19.1053V19.106ZM27.4147 17.3007C27.4493 17.3007 27.4613 17.336 27.4613 17.3833V19.5293C27.6967 19.3293 28.0147 19.106 28.3373 19.106C29.02 19.106 29.4313 19.7007 29.4313 20.3413C29.4313 21.1113 28.8667 21.882 28.0253 21.882C27.5907 21.882 27.3613 21.7407 27.208 21.6753L27.032 21.8113L26.9087 21.7467C26.9613 21.4 26.9913 21.0587 26.9913 20.7V18.1713C26.9913 17.7887 26.9027 17.7773 26.6793 17.712V17.6187C26.9147 17.542 27.1613 17.436 27.2847 17.3653C27.3493 17.3307 27.3967 17.3007 27.4147 17.3007ZM20.8567 17.6007C21.3327 17.6007 21.7913 17.754 22.2447 17.9127L22.3033 18.7527H22.1567C22.0447 18.0653 21.5567 17.7887 20.898 17.7887C20.2213 17.7887 19.2393 18.2413 19.2393 19.6527C19.2393 20.8407 20.086 21.694 20.992 21.694C21.5733 21.694 22.0567 21.294 22.174 20.676L22.3093 20.7113L22.174 21.57C21.9273 21.7233 21.2627 21.882 20.874 21.882C19.498 21.882 18.628 20.994 18.628 19.6707C18.628 18.4653 19.704 17.6 20.8567 17.6V17.6007ZM3.80866 17.6887C5.33133 17.6887 6.16066 18.7053 6.16066 19.7473C6.16066 20.3293 5.81933 21.794 3.73733 21.794C3.43799 21.794 3.16133 21.782 2.88533 21.782C2.62066 21.782 2.36133 21.7873 2.09733 21.7933V21.6407C2.44933 21.6053 2.62066 21.594 2.63733 21.194V18.3407C2.63733 17.8127 2.36133 17.8473 2.09733 17.8413V17.6887C2.32599 17.7 2.56133 17.7 2.79066 17.7C3.03733 17.7 3.37266 17.6887 3.80866 17.6887ZM9.67199 19.1053C10.1713 19.1053 10.3473 19.4707 10.3473 19.9293V21.446C10.3473 21.6407 10.4773 21.6407 10.642 21.6407H10.748V21.7933C10.5413 21.7933 10.336 21.782 10.1247 21.782C9.91266 21.782 9.70066 21.7873 9.48866 21.7933V21.64H9.59533C9.75999 21.64 9.87666 21.64 9.87666 21.446V19.9233C9.87666 19.588 9.67199 19.4233 9.33666 19.4233C9.14799 19.4233 8.84799 19.576 8.65333 19.706V21.446C8.65333 21.6187 8.75599 21.638 8.89466 21.64H9.05399V21.7933C8.84799 21.7933 8.64199 21.7813 8.42999 21.7813C8.21866 21.7813 8.00666 21.7873 7.79533 21.7933V21.64H7.90199C8.06599 21.64 8.18333 21.64 8.18333 21.446V19.888C8.18333 19.6707 8.11866 19.612 7.84333 19.5V19.3887C8.09533 19.306 8.33666 19.2287 8.61866 19.1053C8.63666 19.1053 8.65333 19.1173 8.65333 19.1647V19.5467C8.98933 19.306 9.27733 19.1053 9.67199 19.1053ZM14.712 19.1053C14.8587 19.1053 15.0467 19.2053 15.0467 19.4173C15.0467 19.5767 14.936 19.718 14.7713 19.718C14.588 19.718 14.588 19.576 14.382 19.576C14.282 19.576 13.9527 19.712 13.9527 20.0653V21.446C13.9527 21.6193 14.046 21.6387 14.182 21.6407H14.564V21.794C14.2407 21.7873 13.9947 21.782 13.7413 21.782C13.5007 21.782 13.2533 21.7873 13.0413 21.7933V21.64H13.2007C13.3647 21.64 13.482 21.64 13.482 21.4467V19.7933C13.482 19.612 13.2647 19.576 13.1767 19.5293V19.4413C13.606 19.2587 13.8413 19.106 13.8947 19.106C13.9293 19.106 13.9473 19.1233 13.9473 19.1827V19.712H13.9593C14.106 19.4827 14.3533 19.1053 14.712 19.1053ZM23.332 17.3007C23.368 17.3007 23.38 17.336 23.38 17.3833V21.446C23.38 21.6193 23.482 21.6387 23.62 21.6407H23.7733V21.794C23.574 21.794 23.368 21.782 23.156 21.782C22.9447 21.782 22.7333 21.7873 22.5153 21.7933V21.64H22.6267C22.792 21.64 22.9093 21.64 22.9093 21.4467V18.1713C22.9093 17.7887 22.8213 17.7773 22.5973 17.712V17.6187C22.8066 17.5523 23.0097 17.4675 23.204 17.3653C23.2673 17.3307 23.3147 17.3007 23.332 17.3007ZM7.18999 19.106C7.21866 19.106 7.23066 19.1413 7.23066 19.1887V21.446C7.23066 21.6193 7.33333 21.6387 7.47199 21.6407H7.62533V21.794C7.42533 21.794 7.21866 21.782 7.00799 21.782C6.79599 21.782 6.58399 21.7873 6.36666 21.7933V21.64H6.47799C6.64266 21.64 6.76066 21.64 6.76066 21.4467V19.8527C6.76066 19.594 6.67266 19.5587 6.45466 19.4413V19.3473C6.73133 19.264 7.06066 19.1533 7.08399 19.1353C7.11624 19.1161 7.1531 19.1059 7.19066 19.106H7.18999ZM28.0207 19.4233C27.802 19.4233 27.62 19.5647 27.4607 19.7V21.1287C27.4607 21.352 27.6733 21.7287 28.0673 21.7287C28.696 21.7287 28.9607 21.1113 28.9607 20.5873C28.9607 19.9527 28.4787 19.4233 28.0207 19.4233ZM3.67333 17.8767C3.43133 17.8767 3.31999 17.894 3.21399 17.9007V21.0993C3.21399 21.5527 3.53799 21.6047 3.82599 21.6047C5.09666 21.6047 5.51333 20.6467 5.51333 19.7707C5.51333 18.6707 4.80799 17.8773 3.67333 17.8773V17.8767ZM11.8887 19.2947C11.53 19.2947 11.2833 19.5587 11.2127 19.9827H12.236C12.3827 19.9827 12.4 19.906 12.4 19.8353C12.4 19.5353 12.218 19.2947 11.8887 19.2947ZM6.99533 17.624C7.14866 17.624 7.28399 17.7473 7.28399 17.9067C7.28401 17.9835 7.25383 18.0574 7.19997 18.1122C7.14611 18.1671 7.07286 18.1986 6.99599 18.2C6.91965 18.1968 6.84738 18.1647 6.79378 18.1103C6.74019 18.0558 6.70929 17.983 6.70733 17.9067C6.70733 17.7593 6.84866 17.624 6.99599 17.624H6.99533Z" fill="#181818"/>
<path d="M9.564 11.7787C9.564 12.4904 9.70417 13.1951 9.97652 13.8526C10.2489 14.5101 10.648 15.1075 11.1513 15.6107C11.6545 16.114 12.2519 16.5131 12.9094 16.7855C13.5669 17.0578 14.2717 17.198 14.9833 17.198C15.695 17.198 16.3997 17.0578 17.0572 16.7855C17.7147 16.5131 18.3121 16.114 18.8154 15.6107C19.3186 15.1075 19.7178 14.5101 19.9901 13.8526C20.2625 13.1951 20.4027 12.4904 20.4027 11.7787C20.4027 10.3414 19.8317 8.96295 18.8154 7.94663C17.7991 6.93031 16.4206 6.35934 14.9833 6.35934C13.546 6.35934 12.1676 6.93031 11.1513 7.94663C10.135 8.96295 9.564 10.3414 9.564 11.7787Z" fill="white"/>
<path d="M14.9907 17.2947C11.8853 17.3093 9.32867 14.7933 9.32867 11.7307C9.32867 8.38333 11.8853 6.068 14.9907 6.06866H16.446C19.5153 6.068 22.316 8.382 22.316 11.7307C22.316 14.7927 19.5153 17.2947 16.446 17.2947H14.9907ZM15.004 6.53333C13.6555 6.55505 12.3695 7.106 11.4236 8.06733C10.4776 9.02865 9.94745 10.3233 9.94745 11.672C9.94745 13.0207 10.4776 14.3153 11.4236 15.2767C12.3695 16.238 13.6555 16.7889 15.004 16.8107C16.3525 16.7889 17.6385 16.238 18.5844 15.2767C19.5304 14.3153 20.0606 13.0207 20.0606 11.672C20.0606 10.3233 19.5304 9.02865 18.5844 8.06733C17.6385 7.106 16.3525 6.55505 15.004 6.53333ZM13.8373 14.7113V8.632C13.2227 8.86852 12.694 9.28546 12.3208 9.82804C11.9475 10.3706 11.7471 11.0134 11.746 11.672C11.7472 12.3303 11.9475 12.9728 12.3206 13.5152C12.6938 14.0575 13.2223 14.4743 13.8367 14.7107L13.8373 14.7113ZM18.2607 11.6727C18.26 11.0139 18.0597 10.3708 17.6862 9.82816C17.3128 9.28549 16.7837 8.86868 16.1687 8.63266V14.7127C16.7836 14.4766 17.3127 14.0597 17.6861 13.5171C18.0595 12.9744 18.2599 12.3314 18.2607 11.6727Z" fill="#004A97"/>
</svg>
