<svg width="32" height="32" viewBox="0 0 32 32" fill="none" xmlns="http://www.w3.org/2000/svg">
<path d="M2 16C2 11.5817 5.58172 8 10 8H22C26.4183 8 30 11.5817 30 16C30 20.4183 26.4183 24 22 24H10C5.58172 24 2 20.4183 2 16Z" fill="black"/>
<path d="M25.6637 14.4682L23.5295 19.2347H22.8704L23.6625 17.5667L22.2592 14.4682H22.956L23.97 16.8447H23.983L24.9692 14.4678H25.6637V14.4682ZM16.8001 15.9428V17.8732H16.1307V13.1062H17.9048C18.3258 13.0957 18.7356 13.2428 19.0537 13.5188C19.2039 13.6406 19.325 13.7943 19.4081 13.9689C19.4913 14.1434 19.5344 14.3342 19.5344 14.5275C19.5344 14.7208 19.4913 14.9117 19.4081 15.0862C19.325 15.2607 19.2039 15.4145 19.0537 15.5362C18.7351 15.8107 18.3253 15.9549 17.9048 15.9423H16.8001V15.9432V15.9428ZM16.8001 13.6933V15.3571H17.922C18.1668 15.3652 18.4049 15.2767 18.5849 15.1106C18.6692 15.0388 18.737 14.9495 18.7835 14.8489C18.8299 14.7483 18.854 14.6388 18.854 14.528C18.854 14.4172 18.8299 14.3077 18.7835 14.2071C18.737 14.1065 18.6692 14.0172 18.5849 13.9454C18.4968 13.8611 18.3929 13.7953 18.279 13.7517C18.1652 13.7082 18.0438 13.6878 17.922 13.6919L16.8001 13.6933ZM20.8795 14.4682C21.0635 14.4578 21.2478 14.4839 21.4217 14.5449C21.5957 14.6058 21.7558 14.7006 21.8931 14.8236C22.148 15.0818 22.2824 15.4358 22.2629 15.7986V17.7685H21.7065V17.3252H21.6814C21.5853 17.4923 21.4468 17.6309 21.2798 17.7272C21.1128 17.8234 20.9234 17.8738 20.7306 17.8732C20.4176 17.8825 20.1124 17.7709 19.8799 17.5601C19.7694 17.4623 19.6816 17.3415 19.6226 17.2062C19.5636 17.0709 19.5349 16.9244 19.5384 16.7768C19.5329 16.6264 19.5627 16.4768 19.6254 16.34C19.688 16.2031 19.7819 16.0829 19.8994 15.9888C20.1767 15.7817 20.5176 15.6779 20.8632 15.6953C21.1578 15.6838 21.4501 15.7512 21.7098 15.8907V15.7535C21.7107 15.6531 21.6899 15.5537 21.6488 15.462C21.6077 15.3704 21.5472 15.2888 21.4716 15.2227C21.3212 15.0803 21.1215 15.0018 20.9144 15.0036C20.7608 15.0009 20.6092 15.0387 20.4749 15.1132C20.3406 15.1876 20.2283 15.2962 20.1492 15.4279L19.6422 15.0957C19.7756 14.8923 19.9598 14.7273 20.1767 14.6171C20.3937 14.5069 20.6356 14.4555 20.8786 14.4678H20.879L20.8795 14.4682ZM20.132 16.7903C20.1301 16.9438 20.2004 17.0885 20.3222 17.182C20.4483 17.2852 20.6074 17.341 20.7706 17.3383C20.8921 17.3373 21.0121 17.312 21.1235 17.2638C21.235 17.2156 21.3357 17.1456 21.4195 17.0578C21.6028 16.8884 21.707 16.6503 21.7065 16.4014C21.4898 16.2399 21.2228 16.1603 20.953 16.1768C20.7435 16.1694 20.5374 16.2316 20.3669 16.3535C20.2208 16.4512 20.1325 16.6149 20.1315 16.7903H20.132Z" fill="white"/>
<path d="M14.1487 15.1255H13.8165V15.1078H10.1101V16.7554H12.4378C12.2616 17.2548 11.9296 17.6844 11.4907 17.9808C11.0519 18.2772 10.5294 18.4247 10.0003 18.4017C9.47125 18.3787 8.96358 18.1863 8.55213 17.8529C8.14068 17.5195 7.84722 17.0628 7.71502 16.55C7.58282 16.0372 7.61887 15.4955 7.81785 15.0047C8.01684 14.5139 8.36822 14.1001 8.82022 13.8241C9.27222 13.5482 9.80091 13.4248 10.3284 13.4721C10.8558 13.5194 11.3541 13.7349 11.7498 14.0868L12.9151 12.9211C12.1967 12.2539 11.2637 11.8651 10.2842 11.8248C9.30458 11.7845 8.3428 12.0953 7.57207 12.7012C6.80134 13.3072 6.27232 14.1684 6.08031 15.1298C5.8883 16.0913 6.04592 17.0896 6.52477 17.9452C7.00363 18.8007 7.77224 19.4571 8.69216 19.7961C9.61208 20.1351 10.6228 20.1345 11.5423 19.7944C12.4619 19.4543 13.2297 18.797 13.7075 17.9409C14.1854 17.0848 14.3418 16.0862 14.1487 15.125V15.1255Z" fill="#FFC107"/>
<path d="M6.46609 14.0152L7.81971 15.0073C7.96741 14.6403 8.20124 14.3142 8.50147 14.0565C8.8017 13.7989 9.15951 13.6172 9.5447 13.5269C9.9299 13.4366 10.3312 13.4403 10.7146 13.5376C11.0981 13.635 11.4525 13.8232 11.748 14.0863L12.9132 12.9211C12.4509 12.4889 11.895 12.1693 11.2888 11.9872C10.6827 11.8051 10.0427 11.7655 9.41868 11.8713C8.79469 11.9772 8.20359 12.2258 7.69145 12.5976C7.17931 12.9695 6.75996 13.4546 6.46609 14.0152Z" fill="#FF3D00"/>
<path d="M10.1101 20.0511C11.1316 20.0511 12.1164 19.6696 12.8713 18.9821L11.5968 17.9048C11.2882 18.1387 10.9288 18.2966 10.5478 18.3656C10.1668 18.4347 9.77493 18.4131 9.40386 18.3024C9.0328 18.1918 8.69302 17.9953 8.41205 17.7289C8.13108 17.4625 7.91684 17.1336 7.78667 16.7689L6.44655 17.8016C6.79081 18.4776 7.31508 19.0453 7.96154 19.4423C8.608 19.8392 9.35154 20.0499 10.1101 20.0511Z" fill="#4CAF50"/>
<path d="M14.1486 15.1255H13.8165V15.1078H10.1101V16.7554H12.4378C12.2755 17.2119 11.9829 17.6109 11.5963 17.903L12.8713 18.9803C13.3045 18.6005 13.6502 18.1312 13.8846 17.6049C14.1189 17.0786 14.2363 16.5077 14.2287 15.9316C14.2287 15.6609 14.2017 15.3906 14.1486 15.125V15.1255Z" fill="#1976D2"/>
</svg>
