<svg width="32" height="32" viewBox="0 0 32 32" fill="none" xmlns="http://www.w3.org/2000/svg">
<path d="M12.6483 9.99487H19.3053V22.1451H12.6483V9.99487Z" fill="#FF5F00"/>
<path d="M13.0672 16.0467C13.0672 13.5794 14.1844 11.3916 16 9.94847C14.6964 8.92429 13.0672 8.2738 11.2983 8.2738C7.06206 8.31902 3.66368 11.7638 3.66368 16.0467C3.66368 20.3295 7.06206 23.7741 11.2983 23.7741C13.0672 23.7741 14.6954 23.169 16 22.0994C15.0854 21.3778 14.3463 20.4583 13.8383 19.4099C13.3303 18.3615 13.0667 17.2116 13.0672 16.0467Z" fill="#EB001B"/>
<path d="M28.3363 16.0467C28.3363 20.329 24.9391 23.774 20.7017 23.774C18.9328 23.774 17.3046 23.169 16 22.0994C17.7689 20.7018 18.9328 18.4675 18.9328 16.0012C18.9328 13.5349 17.8153 11.3449 16 9.90182C17.3034 8.87764 18.9328 8.22595 20.7017 8.22595C24.9379 8.31902 28.3363 11.7638 28.3363 16.0467Z" fill="#F79E1B"/>
</svg>
