<svg width="32" height="32" viewBox="0 0 32 32" fill="none" xmlns="http://www.w3.org/2000/svg">
<rect x="5" y="12" width="22" height="9" fill="white"/>
<path d="M23.5875 14.9708C23.5875 14.9708 23.9042 16.5208 23.975 16.8458H22.5833C22.7208 16.475 23.25 15.0333 23.25 15.0333C23.2417 15.0458 23.3875 14.6542 23.4708 14.4125L23.5875 14.9708ZM28 9.66666V22.3333C28 23.4375 27.1042 24.3333 26 24.3333H6C4.89583 24.3333 4 23.4375 4 22.3333V9.66666C4 8.56249 4.89583 7.66666 6 7.66666H26C27.1042 7.66666 28 8.56249 28 9.66666ZM10.3542 19.1333L12.9875 12.6667H11.2167L9.57917 17.0833L9.4 16.1875L8.81667 13.2125C8.72083 12.8 8.425 12.6833 8.05833 12.6667H5.3625L5.33333 12.7958C5.99167 12.9625 6.57917 13.2042 7.09167 13.5083L8.58333 19.1333H10.3542ZM14.2875 19.1417L15.3375 12.6667H13.6625L12.6167 19.1417H14.2875ZM20.1167 17.025C20.125 16.2875 19.675 15.725 18.7125 15.2625C18.125 14.9667 17.7667 14.7667 17.7667 14.4625C17.775 14.1875 18.0708 13.9042 18.7292 13.9042C19.275 13.8917 19.675 14.0208 19.975 14.15L20.125 14.2208L20.3542 12.8208C20.025 12.6917 19.5 12.5458 18.8542 12.5458C17.2 12.5458 16.0375 13.4292 16.0292 14.6875C16.0167 15.6167 16.8625 16.1333 17.4958 16.4458C18.1417 16.7625 18.3625 16.9708 18.3625 17.25C18.3542 17.6833 17.8375 17.8833 17.3583 17.8833C16.6917 17.8833 16.3333 17.7792 15.7875 17.5375L15.5667 17.4333L15.3333 18.8875C15.725 19.0667 16.45 19.225 17.2 19.2333C18.9583 19.2375 20.1042 18.3667 20.1167 17.025ZM26 19.1417L24.65 12.6667H23.3542C22.9542 12.6667 22.65 12.7833 22.4792 13.2042L19.9917 19.1417H21.75C21.75 19.1417 22.0375 18.3417 22.1 18.1708H24.25C24.3 18.4 24.45 19.1417 24.45 19.1417H26Z" fill="#142C97"/>
</svg>
