<svg width="18" height="18" viewBox="0 0 18 18" fill="none" xmlns="http://www.w3.org/2000/svg">
<path d="M16.832 7.43367H16.1871V7.39935H8.99068V10.5984H13.5101C13.168 11.568 12.5233 12.402 11.6712 12.9775C10.8191 13.5531 9.80471 13.8396 8.77745 13.7949C7.75019 13.7502 6.76446 13.3767 5.96557 12.7293C5.16668 12.082 4.5969 11.1951 4.34022 10.1995C4.08353 9.20379 4.15352 8.15198 4.53988 7.1991C4.92623 6.24621 5.6085 5.44266 6.48612 4.9069C7.36374 4.37113 8.39026 4.13149 9.41439 4.22332C10.4385 4.31514 11.406 4.73355 12.1744 5.41689L14.4368 3.15355C13.0421 1.85801 11.2305 1.10311 9.32856 1.02483C7.42657 0.946545 5.55914 1.55002 4.06266 2.72656C2.56617 3.90309 1.53901 5.57534 1.16619 7.44207C0.793378 9.30881 1.09942 11.2473 2.02918 12.9084C2.95894 14.5695 4.45131 15.844 6.23746 16.5023C8.02361 17.1606 9.98613 17.1594 11.7715 16.499C13.5569 15.8386 15.0477 14.5623 15.9755 12.9001C16.9033 11.2379 17.207 9.29906 16.832 7.43277V7.43367Z" fill="#FFC107"/>
<path d="M1.91504 5.27767L4.54326 7.20413C4.83004 6.49148 5.28406 5.85828 5.867 5.35798C6.44994 4.85769 7.14468 4.50498 7.89259 4.32962C8.64049 4.15427 9.41961 4.16142 10.1642 4.35048C10.9087 4.53953 11.5969 4.90494 12.1705 5.41585L14.433 3.15341C13.5353 2.3142 12.4559 1.69364 11.279 1.34009C10.1021 0.986547 8.85943 0.909573 7.64789 1.11517C6.43634 1.32076 5.28864 1.80338 4.29424 2.52539C3.29984 3.2474 2.48562 4.1893 1.91504 5.27767Z" fill="#FF3D00"/>
<path d="M8.99057 16.9973C10.9739 16.9973 12.8859 16.2567 14.3518 14.9218L11.8771 12.8301C11.2779 13.2841 10.5802 13.5906 9.8404 13.7248C9.10065 13.8589 8.33971 13.8168 7.61924 13.602C6.89877 13.3872 6.23903 13.0057 5.6935 12.4884C5.14796 11.9711 4.73197 11.3326 4.47923 10.6245L1.8772 12.6295C2.54562 13.9421 3.56357 15.0445 4.81876 15.8152C6.07396 16.5859 7.51764 16.995 8.99057 16.9973Z" fill="#4CAF50"/>
<path d="M16.832 7.43349H16.1872V7.39917H8.99072V10.5982H13.5102C13.195 11.4846 12.627 12.2592 11.8764 12.8263L14.3519 14.9181C15.1931 14.1806 15.8643 13.2695 16.3193 12.2476C16.7743 11.2257 17.0022 10.1172 16.9874 8.99868C16.9874 8.47304 16.935 7.9483 16.832 7.43259V7.43349Z" fill="#1976D2"/>
</svg>
