<svg width="160" height="160" viewBox="0 0 160 160" fill="none" xmlns="http://www.w3.org/2000/svg">
  <rect width="160" height="160" rx="12" fill="#F4F3EF"/>
  <path d="M44 31H116L109 131H51L44 31Z" fill="#262C2E"/>
  <path d="M44 31H116L112 48H48L44 31Z" fill="#D77735"/>
  <path d="M51 131H109L106 140H54L51 131Z" fill="#D77735"/>
  <path d="M79.5 61C67.0736 61 57 71.0736 57 83.5C57 95.9264 67.0736 106 79.5 106C91.9264 106 102 95.9264 102 83.5C102 71.0736 91.9264 61 79.5 61Z" fill="#BFD7C8"/>
  <path d="M79.5 70V97" stroke="#262C2E" stroke-width="5" stroke-linecap="round"/>
  <path d="M66 83.5H93" stroke="#262C2E" stroke-width="5" stroke-linecap="round"/>
  <text x="80" y="58" fill="white" font-family="Arial, sans-serif" font-size="12" font-weight="700" text-anchor="middle">FOCUS</text>
</svg>
